<svg width="24" height="24" viewBox="0 0 24 24" fill="none" xmlns="http://www.w3.org/2000/svg">
<path d="M2.34 14.63C2.94 14.41 3.56 14.3 4.22 14.3C5.56 14.3 6.73 14.72 7.73 15.56L4.59 18.7C3.53 17.5 2.78 16.13 2.34 14.63ZM15.56 9.79995C17.53 11.27 19.66 11.63 21.94 10.88C21.97 11.09 22 11.47 22 12C22 13.03 21.75 14.18 21.28 15.45C20.81 16.71 20.23 17.73 19.55 18.5L13.22 12.19L15.56 9.79995ZM8.77 16.64C9.83 18.17 10.05 19.84 9.42 21.66C8 21.25 6.73 20.61 5.67 19.73L8.77 16.64ZM12.19 13.22L18.5 19.55C16.33 21.45 13.78 22.25 10.88 21.94C11.09 21.28 11.2 20.56 11.2 19.78C11.2 19.16 11.06 18.43 10.78 17.6C10.5 16.77 10.17 16.09 9.8 15.56L12.19 13.22ZM8.81 14.5C7.88 13.67 6.8 13.15 5.58 12.91C4.36 12.68 3.19 12.75 2.06 13.13C2.03 12.91 2 12.53 2 12C2 10.97 2.25 9.81995 2.72 8.54995C3.19 7.28996 3.77 6.26995 4.45 5.49995L11.11 12.19L8.81 14.5ZM15.56 7.72995C14.22 6.07995 13.91 4.27995 14.63 2.33995C15.25 2.49995 15.96 2.79995 16.76 3.25995C17.55 3.70995 18.2 4.15996 18.7 4.58996L15.56 7.72995ZM21.66 9.37995C21.06 9.58995 20.44 9.69995 19.78 9.69995C18.69 9.69995 17.64 9.37995 16.64 8.71995L19.73 5.66996C20.61 6.76996 21.25 7.99995 21.66 9.37995ZM12.19 11.11L5.5 4.44995C7.67 2.54995 10.22 1.74995 13.13 2.05995C12.91 2.71995 12.8 3.43995 12.8 4.21995C12.8 4.93995 12.96 5.74995 13.29 6.65995C13.62 7.55995 14 8.27995 14.5 8.80996L12.19 11.11Z" fill="#4A5CFD"/>
</svg>
